<svg xmlns="http://www.w3.org/2000/svg" xmlns:xlink="http://www.w3.org/1999/xlink" width="80" height="80"><defs/><defs><linearGradient id="a" x1="-.01036" x2="33.42793" y1="40.74996" y2="40.74996" gradientTransform="matrix(.89793 0 0 1.11367 8 8)" gradientUnits="userSpaceOnUse"><stop offset=".50029" stop-color="#f14a29"/><stop offset="100%" stop-color="#fb5502"/></linearGradient><linearGradient id="b" x1="8" x2="72" y1="40" y2="40" gradientUnits="userSpaceOnUse" xlink:href="#a"/></defs><path fill="url(#b)" d="M8 8h64v64H8z"/><path d="M12 12h56v56H12z"/><g stroke-width=".26458" font-family="Arial Unicode MS" font-size="10.5833" font-weight="400" letter-spacing="0" word-spacing="0"><g aria-label="&lt;tag" style="line-height:1.25;-inkscape-font-specification:'Arial Unicode MS'" opacity=".2"><path d="M15.21713 22.45529l9.62364-5.96568 1.69395 2.67596-7.9665 4.65225 7.9665 4.56631-1.75533 2.7619-9.56226-5.94113z" style="-inkscape-font-specification:'Fira Code Bold'" font-family="Fira Code" font-size="28.2222" font-weight="700" letter-spacing="-1.32292"/><path d="M39.72796 30.81306q-.77103.50635-1.79523.80555-1.01269.2992-2.2095.2992-2.3476 0-3.53292-1.19681-1.1853-1.19682-1.1853-3.3603v-5.54679h-2.56626v-2.5087H31.005v-2.64682l3.63649-.4373v3.08411h3.93568l-.35674 2.50871h-3.57894v5.5468q0 .90911.40277 1.30038.41428.39127 1.33491.39127 1.15079 0 2.14046-.55238zM51.69851 28.00514q0 .67897.18413 1.00119.18413.3107.62142.47182l-.748 2.39363q-1.11627-.10357-1.85277-.48333-.725-.39126-1.13928-1.12777-.67896.81706-1.7607 1.24285-1.07023.41428-2.26705.41428-1.24285 0-2.1865-.48333-.93213-.49483-1.43848-1.35792-.50634-.8746-.50634-2.00237 0-1.3119.70198-2.24403.70198-.93214 2.03689-1.41547 1.33491-.49484 3.2107-.49484h1.64561v-.46031q0-1.87578-2.41665-1.87578-.60991 0-1.54205.17261-.92063.17262-1.80673.47183l-.84008-2.41665q1.15079-.4373 2.42816-.66746 1.27738-.24167 2.3361-.24167 2.69284 0 4.01624 1.09325t1.3234 3.2222zm-5.7079 1.3119q.62143 0 1.25436-.35675.63294-.36825.95515-.98967v-1.97935h-.8976q-1.49603 0-2.22103.46031-.72499.46032-.72499 1.36944 0 .71348.4258 1.10475.43729.39127 1.20832.39127zM65.79803 20.01869q-.63293.25317-1.49602.36825-.85159.11508-2.0254.11508 1.18532.50634 1.77222 1.25435.5869.7365.5869 1.8873 0 1.1853-.64444 2.11744-.63293.93214-1.80673 1.4615-1.1738.51785-2.72737.51785-.75951 0-1.41546-.1381-.19563.10358-.2992.29921-.10357.18413-.10357.40278 0 .34523.27618.55237.2762.19564 1.07023.19564h2.00237q1.39245 0 2.45118.46031 1.05872.4488 1.63411 1.25436.5754.80555.5754 1.81824 0 1.26586-.73651 2.16348-.7365.90912-2.20951 1.39245-1.4615.48333-3.59045.48333-2.27856 0-3.57895-.47182-1.28887-.46032-1.81824-1.3119-.51785-.85158-.51785-2.14046h3.2222q0 .56388.21865.8861.23016.33373.82856.48333.59842.16111 1.7377.16111 1.6111 0 2.221-.36825.60993-.35674.60993-1.0242 0-.56388-.4373-.8861-.4373-.32222-1.33491-.32222h-1.94483q-1.26587 0-2.11745-.32222-.85158-.33373-1.25435-.8861-.40278-.55238-.40278-1.23135 0-.67896.35674-1.28888.36825-.60991 1.0242-1.0242-1.1623-.60991-1.68014-1.44999-.50635-.84007-.50635-2.0484 0-1.34642.69047-2.3591.70198-1.0127 1.94483-1.55357t2.83093-.54087q1.28888.02302 2.30157-.17262 1.0127-.20714 1.78372-.54087.77103-.34523 1.65714-.86309zm-6.50195 1.26586q-.86308 0-1.36943.55238-.50634.54087-.50634 1.49602 0 .98968.50634 1.54205.50635.55238 1.36943.55238.90913 0 1.38095-.54087.48333-.54087.48333-1.59959 0-1.0127-.47182-1.50753-.46032-.49484-1.39246-.49484z" font-size="26.4583"/></g><g style="line-height:1.25;-inkscape-font-specification:'Arial Unicode MS'" fill="#fff" aria-label="&lt;tag"><path style="-inkscape-font-specification:'Fira Code Bold'" d="M14.54393 21.78208l9.62364-5.96568 1.69395 2.67596-7.9665 4.65225 7.9665 4.56632-1.75533 2.76188-9.56226-5.94112z" font-family="Fira Code" font-size="28.2222" font-weight="700" letter-spacing="-1.32292"/><path d="M39.05476 30.13985q-.77103.50635-1.79523.80555-1.01269.2992-2.2095.2992-2.34761 0-3.53292-1.19681-1.1853-1.19682-1.1853-3.3603v-5.54678h-2.56626v-2.50872h2.56625v-2.6468l3.63648-.4373v3.0841h3.9357l-.35675 2.50872h-3.57895v5.54678q0 .90912.40278 1.3004.41428.39126 1.33491.39126 1.15079 0 2.14046-.55238zM51.02531 27.33193q0 .67897.18413 1.00119.18413.31071.62142.47182l-.748 2.39364q-1.11627-.10358-1.85277-.48334-.725-.39126-1.13928-1.12777-.67896.81706-1.7607 1.24285-1.07023.41429-2.26705.41429-1.24285 0-2.1865-.48333-.93213-.49484-1.43848-1.35793-.50634-.8746-.50634-2.00237 0-1.3119.70198-2.24403.70198-.93214 2.03689-1.41547 1.3349-.49484 3.2107-.49484h1.64561v-.46031q0-1.87578-2.41665-1.87578-.60991 0-1.54205.17262-.92063.17261-1.80673.47182l-.84008-2.41665q1.15079-.4373 2.42816-.66746 1.27737-.24166 2.3361-.24166 2.69284 0 4.01624 1.09324 1.3234 1.09325 1.3234 3.2222zm-5.7079 1.3119q.62143 0 1.25436-.35674.63293-.36826.95515-.98968v-1.97935h-.8976q-1.49603 0-2.22103.46031-.725.46032-.725 1.36944 0 .71349.4258 1.10475.4373.39127 1.20833.39127zM65.12483 19.34548q-.63293.25317-1.49602.36825-.85159.11508-2.0254.11508 1.18532.50634 1.77222 1.25436.5869.7365.5869 1.88729 0 1.1853-.64444 2.11744-.63293.93214-1.80673 1.4615-1.1738.51785-2.72737.51785-.75951 0-1.41546-.1381-.19563.10358-.2992.29921-.10358.18413-.10358.40278 0 .34523.2762.55238.27618.19563 1.07022.19563h2.00237q1.39245 0 2.45117.46031 1.05873.44881 1.63412 1.25436.5754.80555.5754 1.81824 0 1.26587-.73651 2.16348-.7365.90912-2.20951 1.39245-1.4615.48333-3.59045.48333-2.27856 0-3.57895-.47182-1.28887-.46032-1.81824-1.3119-.51785-.85158-.51785-2.14046h3.2222q0 .56389.21865.8861.23016.33373.82856.48334.59842.1611 1.7377.1611 1.6111 0 2.221-.36825.60993-.35674.60993-1.0242 0-.56388-.4373-.8861-.4373-.32222-1.33491-.32222H57.6447q-1.26586 0-2.11744-.32222-.85158-.33373-1.25435-.8861-.40279-.55238-.40279-1.23135 0-.67896.35675-1.28888.36825-.60991 1.0242-1.0242-1.1623-.60991-1.68014-1.44999-.50635-.84007-.50635-2.0484 0-1.34642.69047-2.3591.70198-1.0127 1.94483-1.55357t2.83093-.54087q1.28888.02302 2.30157-.17262 1.0127-.20714 1.78372-.54086.77103-.34524 1.65714-.8631zm-6.50195 1.26586q-.86308 0-1.36943.55238-.50635.54087-.50635 1.49602 0 .98968.50635 1.54206.50635.55237 1.36943.55237.90913 0 1.38095-.54087.48333-.54087.48333-1.59959 0-1.01269-.47182-1.50753-.46032-.49484-1.39246-.49484z" font-size="26.4583"/></g></g><g stroke-width=".26458" font-family="sans-serif" font-size="10.5833" font-weight="400" letter-spacing="0" word-spacing="0"><g style="line-height:1.25"><path d="M52.19225 51.23161l2.05335-3.32935 11.4694 7.09871v3.31468l-11.4254 7.09872-2.09735-3.15336 9.5334-5.6027z" style="-inkscape-font-specification:'Fira Code Bold'" aria-label="&gt;" font-family="Fira Code" font-size="31.75" font-weight="700" opacity=".2"/></g><g style="line-height:1.25"><path style="-inkscape-font-specification:'Fira Code Bold'" fill="#fff" d="M51.47725 50.51661l2.05335-3.32935L65 54.28596v3.3147l-11.4254 7.0987-2.09735-3.15335 9.5334-5.6027z" aria-label="&gt;" font-family="Fira Code" font-size="31.75" font-weight="700"/></g></g><g style="line-height:1.25"><path style="-inkscape-font-specification:'Fira Code'" fill="#fff" stroke-width=".26458" d="M30.83018 41.67509l-.00364 4.95676-2.97824.01167-.00825-12.93424 2.97824-.01167.0086 4.98453 10.01794.00598-2.8613-2.86146 2.11799-2.11507 6.48124 6.4614-6.4759 6.46495-2.1209-2.11506 2.84944-2.85333z" aria-label="↨" font-family="Fira Code" font-size="35.2778" font-weight="400" letter-spacing="0" opacity=".5" word-spacing="0"/></g><g style="line-height:1.25"><path d="M30.82635 57.18985l-.00363 4.95677-2.97824.01166-.00825-12.93423 2.97824-.01167.0086 4.98453 10.01794.00598-2.8613-2.86147 2.11799-2.11506 6.48123 6.4614-6.4759 6.46495-2.1209-2.11506 2.84945-2.85334z" style="-inkscape-font-specification:'Fira Code'" fill="#fff" stroke-width=".26458" aria-label="↨" font-family="Fira Code" font-size="35.2778" font-weight="400" letter-spacing="0" opacity=".5" word-spacing="0"/></g></svg>