<?xml version="1.0" encoding="UTF-8" standalone="no"?>
<svg
   xmlns:dc="http://purl.org/dc/elements/1.1/"
   xmlns:cc="http://creativecommons.org/ns#"
   xmlns:rdf="http://www.w3.org/1999/02/22-rdf-syntax-ns#"
   xmlns:svg="http://www.w3.org/2000/svg"
   xmlns="http://www.w3.org/2000/svg"
   xmlns:xlink="http://www.w3.org/1999/xlink"
   xmlns:sodipodi="http://sodipodi.sourceforge.net/DTD/sodipodi-0.dtd"
   xmlns:inkscape="http://www.inkscape.org/namespaces/inkscape"
   width="80"
   height="80"
   viewBox="0 0 80 80"
   version="1.1"
   id="svg4890"
   sodipodi:docname="pluginIcon-v2.svg"
   inkscape:version="1.0.2-2 (e86c870879, 2021-01-15)">
  <metadata
     id="metadata4894">
    <rdf:RDF>
      <cc:Work
         rdf:about="">
        <dc:format>image/svg+xml</dc:format>
        <dc:type
           rdf:resource="http://purl.org/dc/dcmitype/StillImage" />
        <dc:title></dc:title>
      </cc:Work>
    </rdf:RDF>
  </metadata>
  <sodipodi:namedview
     pagecolor="#ffffff"
     bordercolor="#666666"
     borderopacity="1"
     objecttolerance="10"
     gridtolerance="10"
     guidetolerance="10"
     inkscape:pageopacity="0"
     inkscape:pageshadow="2"
     inkscape:window-width="1600"
     inkscape:window-height="837"
     id="namedview4892"
     showgrid="false"
     showguides="true"
     inkscape:guide-bbox="true"
     inkscape:zoom="4"
     inkscape:cx="24.854786"
     inkscape:cy="48.189606"
     inkscape:window-x="-8"
     inkscape:window-y="-8"
     inkscape:window-maximized="1"
     inkscape:current-layer="svg4890"
     inkscape:document-rotation="0" />
  <defs
     id="defs4868">
    <linearGradient
       id="pluginsdk_80-a"
       x1="-0.01035717"
       x2="33.427933"
       y1="40.749962"
       y2="40.749962"
       gradientTransform="matrix(0.89792871,0,0,1.1136742,8,8)"
       gradientUnits="userSpaceOnUse">
      <stop
         offset="0.50028753"
         stop-color="#F97A12"
         id="stop912"
         style="stop-color:#f14a29;stop-opacity:1" />
      <stop
         offset="100%"
         stop-color="#087CFA"
         id="stop920"
         style="stop-color:#fb5502;stop-opacity:1" />
    </linearGradient>
    <linearGradient
       id="pluginsdk_80-a-1"
       x1="-0.01035717"
       x2="33.427933"
       y1="40.749962"
       y2="40.749962"
       gradientTransform="matrix(0.89792871,0,0,1.1136742,8,8)"
       gradientUnits="userSpaceOnUse">
      <stop
         offset="25.81%"
         stop-color="#F97A12"
         id="stop4798" />
      <stop
         offset="45.91%"
         stop-color="#B07B58"
         id="stop4800" />
      <stop
         offset="72.41%"
         stop-color="#577BAE"
         id="stop4802" />
      <stop
         offset="91.05%"
         stop-color="#1E7CE5"
         id="stop4804" />
      <stop
         offset="100%"
         stop-color="#087CFA"
         id="stop4806" />
    </linearGradient>
    <linearGradient
       id="pluginsdk_80-b"
       x1="40.00824"
       x2="68.705269"
       y1="18.115879"
       y2="40.733696"
       gradientTransform="matrix(0.8201327,0,0,1.2193149,8,8)"
       gradientUnits="userSpaceOnUse">
      <stop
         offset="0%"
         stop-color="#F97A12"
         id="stop4809" />
      <stop
         offset="7.18%"
         stop-color="#CB7A3E"
         id="stop4811" />
      <stop
         offset="15.41%"
         stop-color="#9E7B6A"
         id="stop4813" />
      <stop
         offset="24.2%"
         stop-color="#757B91"
         id="stop4815" />
      <stop
         offset="33.44%"
         stop-color="#537BB1"
         id="stop4817" />
      <stop
         offset="43.24%"
         stop-color="#387CCC"
         id="stop4819" />
      <stop
         offset="53.81%"
         stop-color="#237CE0"
         id="stop4821" />
      <stop
         offset="65.52%"
         stop-color="#147CEF"
         id="stop4823" />
      <stop
         offset="79.25%"
         stop-color="#0B7CF7"
         id="stop4825" />
      <stop
         offset="100%"
         stop-color="#087CFA"
         id="stop4827" />
    </linearGradient>
    <linearGradient
       id="pluginsdk_80-c"
       x1="64.109039"
       x2="55.996876"
       y1="35.495808"
       y2="-2.3931761"
       gradientTransform="matrix(0.82572282,0,0,1.2110601,8,8)"
       gradientUnits="userSpaceOnUse">
      <stop
         offset="0%"
         stop-color="#FE315D"
         id="stop4830" />
      <stop
         offset="7.84%"
         stop-color="#CB417E"
         id="stop4832" />
      <stop
         offset="16.01%"
         stop-color="#9E4E9B"
         id="stop4834" />
      <stop
         offset="24.74%"
         stop-color="#755BB4"
         id="stop4836" />
      <stop
         offset="33.92%"
         stop-color="#5365CA"
         id="stop4838" />
      <stop
         offset="43.65%"
         stop-color="#386DDB"
         id="stop4840" />
      <stop
         offset="54.14%"
         stop-color="#2374E9"
         id="stop4842" />
      <stop
         offset="65.76%"
         stop-color="#1478F3"
         id="stop4844" />
      <stop
         offset="79.4%"
         stop-color="#0B7BF8"
         id="stop4846" />
      <stop
         offset="100%"
         stop-color="#087CFA"
         id="stop4848" />
    </linearGradient>
    <linearGradient
       id="pluginsdk_80-d"
       x1="15.433212"
       x2="57.18166"
       y1="14.694787"
       y2="80.800919"
       gradientTransform="matrix(0.95197164,0,0,1.0504515,8,8)"
       gradientUnits="userSpaceOnUse">
      <stop
         offset="0%"
         stop-color="#FE315D"
         id="stop4851" />
      <stop
         offset="4.023%"
         stop-color="#F63462"
         id="stop4853" />
      <stop
         offset="10.37%"
         stop-color="#DF3A71"
         id="stop4855" />
      <stop
         offset="16.67%"
         stop-color="#C24383"
         id="stop4857" />
      <stop
         offset="29.12%"
         stop-color="#AD4A91"
         id="stop4859" />
      <stop
         offset="54.98%"
         stop-color="#755BB4"
         id="stop4861" />
      <stop
         offset="91.75%"
         stop-color="#1D76ED"
         id="stop4863" />
      <stop
         offset="100%"
         stop-color="#087CFA"
         id="stop4865" />
    </linearGradient>
    <linearGradient
       inkscape:collect="always"
       xlink:href="#pluginsdk_80-a"
       id="linearGradient910"
       x1="8"
       y1="40"
       x2="72"
       y2="40"
       gradientUnits="userSpaceOnUse" />
  </defs>
  <rect
     style="fill:url(#linearGradient910);fill-opacity:1;fill-rule:nonzero;stroke-width:1.143;stroke-miterlimit:4;stroke-dasharray:none"
     y="8"
     x="8"
     id="rect5637"
     height="64"
     width="64" />
  <rect
     width="56"
     height="56"
     id="rect4880"
     x="12"
     y="12"
     style="fill:#000000;fill-rule:nonzero" />
  <g
     id="g5576"
     transform="matrix(1.2450775,0,0,1.2450775,-170.18514,-3.8645932)">
    <g
       transform="matrix(0.68119319,0,0,0.68119319,111.53541,-24.382398)"
       aria-label="&lt;tag"
       style="font-style:normal;font-variant:normal;font-weight:normal;font-stretch:normal;font-size:10.5833px;line-height:1.25;font-family:'Arial Unicode MS';-inkscape-font-specification:'Arial Unicode MS';letter-spacing:0px;word-spacing:0px;opacity:0.2;fill:#000000;fill-opacity:1;stroke:none;stroke-width:0.264583"
       id="g4680">
      <path
         inkscape:connector-curvature="0"
         d="m 54.863739,66.826192 11.34678,-7.033846 1.997265,3.1551 -9.392934,5.485242 9.392934,5.383931 -2.069629,3.25641 -11.274416,-7.0049 z"
         style="font-style:normal;font-variant:normal;font-weight:bold;font-stretch:normal;font-size:28.2222px;font-family:'Fira Code';-inkscape-font-specification:'Fira Code Bold';letter-spacing:-1.32292px;fill:#000000;stroke-width:0.264583"
         id="path4672" />
      <path
         inkscape:connector-curvature="0"
         d="m 83.763307,76.680451 q -0.909081,0.597009 -2.116667,0.949786 -1.194017,0.352778 -2.605128,0.352778 -2.767949,0 -4.165492,-1.411111 -1.397542,-1.411111 -1.397542,-3.961966 V 66.069981 H 70.45273 v -2.957906 h 3.025748 v -3.120727 l 4.287607,-0.515598 v 3.636325 h 4.640384 l -0.420619,2.957906 h -4.219765 v 6.539957 q 0,1.071902 0.474893,1.533227 0.488461,0.461324 1.573931,0.461324 1.356838,0 2.523718,-0.651282 z"
         style="font-size:26.4583px;fill:#000000"
         id="path4674" />
      <path
         inkscape:connector-curvature="0"
         d="m 97.877226,73.369767 q 0,0.800534 0.217094,1.180449 0.217094,0.366346 0.732692,0.556303 l -0.881944,2.822223 q -1.316133,-0.122116 -2.184509,-0.569872 -0.854808,-0.461325 -1.343269,-1.329701 -0.800534,0.963355 -2.075962,1.465385 -1.261859,0.488461 -2.67297,0.488461 -1.465385,0 -2.577991,-0.569872 -1.099039,-0.58344 -1.696047,-1.601068 -0.597009,-1.031197 -0.597009,-2.360898 0,-1.546794 0.827671,-2.645833 0.827671,-1.099038 2.401603,-1.66891 1.573931,-0.58344 3.785577,-0.58344 h 1.940277 v -0.542735 q 0,-2.211646 -2.849359,-2.211646 -0.719124,0 -1.818162,0.203526 -1.08547,0.203525 -2.130235,0.556303 l -0.990492,-2.849359 q 1.356838,-0.515598 2.862928,-0.786966 1.50609,-0.284936 2.75438,-0.284936 3.175,0 4.735364,1.288996 1.560363,1.288996 1.560363,3.799146 z m -6.729915,1.546795 q 0.732692,0 1.478953,-0.42062 0.746261,-0.434188 1.126175,-1.16688 v -2.333761 h -1.058333 q -1.763889,0 -2.618697,0.542735 -0.854807,0.542735 -0.854807,1.614637 0,0.84124 0.50203,1.302564 0.515598,0.461325 1.424679,0.461325 z"
         style="font-size:26.4583px;fill:#000000"
         id="path4676" />
      <path
         inkscape:connector-curvature="0"
         d="m 114.5013,63.953314 q -0.74626,0.298504 -1.76389,0.434188 -1.00406,0.135684 -2.38804,0.135684 1.39755,0.597008 2.08953,1.478953 0.69199,0.868376 0.69199,2.225214 0,1.397542 -0.75983,2.496581 -0.74626,1.099038 -2.13023,1.723184 -1.38398,0.610577 -3.21571,0.610577 -0.89551,0 -1.66891,-0.162821 -0.23066,0.122115 -0.35278,0.352778 -0.12211,0.217094 -0.12211,0.474893 0,0.407051 0.32564,0.651282 0.32564,0.230662 1.26186,0.230662 h 2.36089 q 1.64178,0 2.89007,0.542735 1.24829,0.529167 1.92671,1.478954 0.67842,0.949786 0.67842,2.143803 0,1.492521 -0.86838,2.550855 -0.86837,1.071901 -2.60513,1.641773 -1.72318,0.569872 -4.23333,0.569872 -2.68654,0 -4.21977,-0.556303 -1.51965,-0.542735 -2.1438,-1.546795 -0.610576,-1.00406 -0.610576,-2.523718 h 3.799146 q 0,0.66485 0.2578,1.044765 0.27137,0.393483 0.97692,0.569872 0.70556,0.189957 2.04883,0.189957 1.89957,0 2.61869,-0.434188 0.71913,-0.42062 0.71913,-1.207586 0,-0.66485 -0.5156,-1.044765 -0.5156,-0.379914 -1.57393,-0.379914 h -2.29306 q -1.49252,0 -2.49658,-0.379915 -1.00406,-0.393483 -1.47895,-1.044765 -0.4749,-0.651282 -0.4749,-1.451816 0,-0.800534 0.42062,-1.519658 0.43419,-0.719124 1.20759,-1.207586 -1.37041,-0.719124 -1.98098,-1.709615 -0.59701,-0.990492 -0.59701,-2.415171 0,-1.5875 0.8141,-2.781517 0.82767,-1.194017 2.29306,-1.831731 1.46538,-0.637714 3.33782,-0.637714 1.51965,0.02714 2.71367,-0.203525 1.19402,-0.244231 2.1031,-0.637714 0.90908,-0.407051 1.95385,-1.017628 z m -7.66614,1.492521 q -1.01762,0 -1.61463,0.651282 -0.59701,0.637714 -0.59701,1.763889 0,1.166881 0.59701,1.818163 0.59701,0.651282 1.61463,0.651282 1.07191,0 1.62821,-0.637714 0.56987,-0.637714 0.56987,-1.886004 0,-1.194017 -0.5563,-1.777457 -0.54274,-0.583441 -1.64178,-0.583441 z"
         style="font-size:26.4583px;fill:#000000"
         id="path4678" />
    </g>
    <g
       transform="matrix(0.68119319,0,0,0.68119319,110.99472,-24.923094)"
       id="text4532"
       style="font-style:normal;font-variant:normal;font-weight:normal;font-stretch:normal;font-size:10.5833px;line-height:1.25;font-family:'Arial Unicode MS';-inkscape-font-specification:'Arial Unicode MS';letter-spacing:0px;word-spacing:0px;fill:#ffffff;fill-opacity:1;stroke:none;stroke-width:0.264583"
       aria-label="&lt;tag">
      <path
         inkscape:connector-curvature="0"
         id="path4663"
         style="font-style:normal;font-variant:normal;font-weight:bold;font-stretch:normal;font-size:28.2222px;font-family:'Fira Code';-inkscape-font-specification:'Fira Code Bold';letter-spacing:-1.32292px;fill:#ffffff;stroke-width:0.264583"
         d="m 54.863739,66.826192 11.34678,-7.033846 1.997265,3.1551 -9.392934,5.485242 9.392934,5.383931 -2.069629,3.25641 -11.274416,-7.0049 z" />
      <path
         inkscape:connector-curvature="0"
         id="path4665"
         style="font-size:26.4583px"
         d="m 83.763307,76.680451 q -0.909081,0.597009 -2.116667,0.949786 -1.194017,0.352778 -2.605128,0.352778 -2.767949,0 -4.165492,-1.411111 -1.397542,-1.411111 -1.397542,-3.961966 V 66.069981 H 70.45273 v -2.957906 h 3.025748 v -3.120727 l 4.287607,-0.515598 v 3.636325 h 4.640384 l -0.420619,2.957906 h -4.219765 v 6.539957 q 0,1.071902 0.474893,1.533227 0.488461,0.461324 1.573931,0.461324 1.356838,0 2.523718,-0.651282 z" />
      <path
         inkscape:connector-curvature="0"
         id="path4667"
         style="font-size:26.4583px"
         d="m 97.877226,73.369767 q 0,0.800534 0.217094,1.180449 0.217094,0.366346 0.732692,0.556303 l -0.881944,2.822223 q -1.316133,-0.122116 -2.184509,-0.569872 -0.854808,-0.461325 -1.343269,-1.329701 -0.800534,0.963355 -2.075962,1.465385 -1.261859,0.488461 -2.67297,0.488461 -1.465385,0 -2.577991,-0.569872 -1.099039,-0.58344 -1.696047,-1.601068 -0.597009,-1.031197 -0.597009,-2.360898 0,-1.546794 0.827671,-2.645833 0.827671,-1.099038 2.401603,-1.66891 1.573931,-0.58344 3.785577,-0.58344 h 1.940277 v -0.542735 q 0,-2.211646 -2.849359,-2.211646 -0.719124,0 -1.818162,0.203526 -1.08547,0.203525 -2.130235,0.556303 l -0.990492,-2.849359 q 1.356838,-0.515598 2.862928,-0.786966 1.50609,-0.284936 2.75438,-0.284936 3.175,0 4.735364,1.288996 1.560363,1.288996 1.560363,3.799146 z m -6.729915,1.546795 q 0.732692,0 1.478953,-0.42062 0.746261,-0.434188 1.126175,-1.16688 v -2.333761 h -1.058333 q -1.763889,0 -2.618697,0.542735 -0.854807,0.542735 -0.854807,1.614637 0,0.84124 0.50203,1.302564 0.515598,0.461325 1.424679,0.461325 z" />
      <path
         inkscape:connector-curvature="0"
         id="path4669"
         style="font-size:26.4583px"
         d="m 114.5013,63.953314 q -0.74626,0.298504 -1.76389,0.434188 -1.00406,0.135684 -2.38804,0.135684 1.39755,0.597008 2.08953,1.478953 0.69199,0.868376 0.69199,2.225214 0,1.397542 -0.75983,2.496581 -0.74626,1.099038 -2.13023,1.723184 -1.38398,0.610577 -3.21571,0.610577 -0.89551,0 -1.66891,-0.162821 -0.23066,0.122115 -0.35278,0.352778 -0.12211,0.217094 -0.12211,0.474893 0,0.407051 0.32564,0.651282 0.32564,0.230662 1.26186,0.230662 h 2.36089 q 1.64178,0 2.89007,0.542735 1.24829,0.529167 1.92671,1.478954 0.67842,0.949786 0.67842,2.143803 0,1.492521 -0.86838,2.550855 -0.86837,1.071901 -2.60513,1.641773 -1.72318,0.569872 -4.23333,0.569872 -2.68654,0 -4.21977,-0.556303 -1.51965,-0.542735 -2.1438,-1.546795 -0.610576,-1.00406 -0.610576,-2.523718 h 3.799146 q 0,0.66485 0.2578,1.044765 0.27137,0.393483 0.97692,0.569872 0.70556,0.189957 2.04883,0.189957 1.89957,0 2.61869,-0.434188 0.71913,-0.42062 0.71913,-1.207586 0,-0.66485 -0.5156,-1.044765 -0.5156,-0.379914 -1.57393,-0.379914 h -2.29306 q -1.49252,0 -2.49658,-0.379915 -1.00406,-0.393483 -1.47895,-1.044765 -0.4749,-0.651282 -0.4749,-1.451816 0,-0.800534 0.42062,-1.519658 0.43419,-0.719124 1.20759,-1.207586 -1.37041,-0.719124 -1.98098,-1.709615 -0.59701,-0.990492 -0.59701,-2.415171 0,-1.5875 0.8141,-2.781517 0.82767,-1.194017 2.29306,-1.831731 1.46538,-0.637714 3.33782,-0.637714 1.51965,0.02714 2.71367,-0.203525 1.19402,-0.244231 2.1031,-0.637714 0.90908,-0.407051 1.95385,-1.017628 z m -7.66614,1.492521 q -1.01762,0 -1.61463,0.651282 -0.59701,0.637714 -0.59701,1.763889 0,1.166881 0.59701,1.818163 0.59701,0.651282 1.61463,0.651282 1.07191,0 1.62821,-0.637714 0.56987,-0.637714 0.56987,-1.886004 0,-1.194017 -0.5563,-1.777457 -0.54274,-0.583441 -1.64178,-0.583441 z" />
    </g>
  </g>
  <g
     id="g5582"
     transform="matrix(1.322375,0,0,1.322375,-198.25685,-19.166314)">
    <g
       transform="matrix(0.68119319,0,0,0.68119319,111.53541,-24.742863)"
       aria-label="&gt;"
       style="font-style:normal;font-weight:normal;font-size:10.5833px;line-height:1.25;font-family:sans-serif;letter-spacing:0px;word-spacing:0px;opacity:0.2;fill:#000000;fill-opacity:1;stroke:none;stroke-width:0.264583"
       id="g4698">
      <path
         inkscape:connector-curvature="0"
         d="m 114.29649,114.4739 2.27949,-3.69602 12.73256,7.88051 v 3.67974 l -12.68371,7.88052 -2.32834,-3.50065 10.58334,-6.21974 z"
         style="font-style:normal;font-variant:normal;font-weight:bold;font-stretch:normal;font-size:31.75px;font-family:'Fira Code';-inkscape-font-specification:'Fira Code Bold';fill:#000000;stroke-width:0.264583"
         id="path4696" />
    </g>
    <g
       transform="matrix(0.68119319,0,0,0.68119319,110.99472,-25.283559)"
       id="text4562"
       style="font-style:normal;font-weight:normal;font-size:10.5833px;line-height:1.25;font-family:sans-serif;letter-spacing:0px;word-spacing:0px;fill:#000000;fill-opacity:1;stroke:none;stroke-width:0.264583"
       aria-label="&gt;">
      <path
         inkscape:connector-curvature="0"
         id="path4660"
         style="font-style:normal;font-variant:normal;font-weight:bold;font-stretch:normal;font-size:31.75px;font-family:'Fira Code';-inkscape-font-specification:'Fira Code Bold';fill:#ffffff;stroke-width:0.264583"
         d="m 114.29649,114.4739 2.27949,-3.69602 12.73256,7.88051 v 3.67974 l -12.68371,7.88052 -2.32834,-3.50065 10.58334,-6.21974 z" />
    </g>
  </g>
  <g
     id="g4619"
     style="font-style:normal;font-weight:normal;font-size:10.5833px;line-height:1.25;font-family:sans-serif;letter-spacing:0px;word-spacing:0px;opacity:0.5;fill:#ffffff;fill-opacity:1;stroke:none;stroke-width:0.264583"
     transform="matrix(0,0.57742842,-0.57742842,0,-10.748334,-15.077698)"
     aria-label="↨">
    <path
       sodipodi:nodetypes="cccccccccccccc"
       inkscape:connector-curvature="0"
       id="path4617"
       style="font-style:normal;font-variant:normal;font-weight:normal;font-stretch:normal;font-size:35.2778px;font-family:'Fira Code';-inkscape-font-specification:'Fira Code';fill:#ffffff;stroke-width:0.264583"
       d="m 98.2854,-72.006346 8.58421,0.0063 0.0202,5.157762 -22.399725,0.01428 -0.0202,-5.157762 8.632285,-0.01488 0.01035,-17.349242 -4.955527,4.955236 -3.662907,-3.667959 11.189952,-11.224312 11.196122,11.215078 -3.6629,3.673009 -4.941453,-4.93472 z" />
  </g>
  <g
     aria-label="↨"
     transform="matrix(0,0.57742842,-0.57742842,0,-10.752157,0.43707045)"
     style="font-style:normal;font-weight:normal;font-size:10.5833px;line-height:1.25;font-family:sans-serif;letter-spacing:0px;word-spacing:0px;opacity:0.5;fill:#ffffff;fill-opacity:1;stroke:none;stroke-width:0.264583"
     id="g5647">
    <path
       d="m 98.2854,-72.006346 8.58421,0.0063 0.0202,5.157762 -22.399725,0.01428 -0.0202,-5.157762 8.632285,-0.01488 0.01035,-17.349242 -4.955527,4.955236 -3.662907,-3.667959 11.189952,-11.224312 11.196122,11.215078 -3.6629,3.673009 -4.941453,-4.93472 z"
       style="font-style:normal;font-variant:normal;font-weight:normal;font-stretch:normal;font-size:35.2778px;font-family:'Fira Code';-inkscape-font-specification:'Fira Code';fill:#ffffff;stroke-width:0.264583"
       id="path5645"
       inkscape:connector-curvature="0"
       sodipodi:nodetypes="cccccccccccccc" />
  </g>
</svg>
